<svg xmlns="http://www.w3.org/2000/svg" width="45" height="56" fill="none" viewBox="0 0 45 56">
  <path fill="#FF5D01" fill-rule="evenodd" d="M1.196 33.978A15.702 15.702 0 0 0 0 39.468a6.829 6.829 0 0 0 1.153 3.247 15.534 15.534 0 0 0 4.377 3.517l10.727 7.14a15.337 15.337 0 0 0 4.392 2.444 6.775 6.775 0 0 0 3.138 0 15.44 15.44 0 0 0 4.428-2.427l10.841-7.145a15.711 15.711 0 0 0 4.428-3.53 6.78 6.78 0 0 0 1.15-3.27 15.719 15.719 0 0 0-1.227-5.528l-9.482-29.84a8.308 8.308 0 0 0-1.13-2.72A3.625 3.625 0 0 0 31.333.29a8.308 8.308 0 0 0-2.929-.255H16.058c-.984-.09-1.976 0-2.928.262a3.584 3.584 0 0 0-1.465 1.07 8.242 8.242 0 0 0-1.119 2.72L1.196 33.98v-.003Zm27.695-27.61a6.98 6.98 0 0 1 .922 2.286l8.141 26.74a33.82 33.82 0 0 0-9.733-3.29L22.931 14.2a.695.695 0 0 0-.771-.48.693.693 0 0 0-.55.48l-5.23 17.899a33.764 33.764 0 0 0-9.776 3.303l8.174-26.74c.167-.813.48-1.588.924-2.289a3.05 3.05 0 0 1 1.218-.9 6.923 6.923 0 0 1 2.457-.208h5.843a6.932 6.932 0 0 1 2.46.209c.476.193.895.504 1.219.903l-.008-.008Zm-6.303 32.24a11.61 11.61 0 0 0 7.112-1.931 5.858 5.858 0 0 1-.433 4.564 8.238 8.238 0 0 1-3.236 3.098c-1.41.895-2.623 1.673-2.623 3.738a4.348 4.348 0 0 0 .437 1.911 5.209 5.209 0 0 1-3.21-4.81v-.128c0-1.429 0-3.188-2.013-3.188a2.136 2.136 0 0 0-2.138 2.132 7.884 7.884 0 0 1-2.066-5.53 8.795 8.795 0 0 1 .366-2.611c.837 1.583 4.016 2.76 7.804 2.76v-.006Z" clip-rule="evenodd"/>
</svg>
