<svg xmlns="http://www.w3.org/2000/svg" width="35" height="35" fill="none" viewBox="0 0 35 35">
  <circle cx="17.5" cy="17.5" r="17.5" fill="#000"/>
  <path fill="#fff" fill-rule="evenodd" d="M17.38 2C8.881 2 2 8.882 2 17.38c0 6.805 4.402 12.553 10.516 14.59.769.135 1.057-.326 1.057-.73 0-.365-.02-1.576-.02-2.864-3.863.711-4.863-.942-5.17-1.807-.174-.443-.923-1.807-1.577-2.173-.538-.288-1.307-1-.02-1.019 1.212-.019 2.077 1.115 2.365 1.577 1.385 2.326 3.595 1.672 4.48 1.269.134-1 .538-1.673.98-2.057-3.422-.385-6.998-1.711-6.998-7.594 0-1.672.596-3.057 1.577-4.133-.154-.385-.692-1.961.154-4.076 0 0 1.288-.403 4.229 1.577 1.23-.346 2.538-.52 3.845-.52 1.307 0 2.614.174 3.845.52 2.941-2 4.229-1.577 4.229-1.577.846 2.115.308 3.691.154 4.076.98 1.076 1.576 2.441 1.576 4.133 0 5.902-3.595 7.21-7.017 7.594.558.48 1.039 1.403 1.039 2.845 0 2.057-.02 3.71-.02 4.23 0 .403.289.883 1.058.73a15.406 15.406 0 0 0 10.477-14.592C32.759 8.882 25.876 2 17.379 2Z" clip-rule="evenodd"/>
</svg>
