<svg xmlns="http://www.w3.org/2000/svg" width="54" height="50" fill="none"><path fill="url(#a)" d="M29.136 32.08 22.9 25.92l.073-.074a43.004 43.004 0 0 0 9.107-16.028h7.192V4.91H22.09V0h-4.91v4.91H0v4.908h27.417a38.7 38.7 0 0 1-7.78 13.132 38.397 38.397 0 0 1-5.67-8.223h-4.91c1.792 4.001 4.247 7.781 7.315 11.193L3.878 38.242l3.486 3.485 12.272-12.272 7.634 7.633 1.866-5.007Zm13.819-12.444h-4.91L27 49.091h4.91l2.748-7.364h11.66l2.773 7.364H54L42.955 19.636Zm-6.431 17.182L40.5 26.19l3.976 10.628h-7.952Z"/><defs><linearGradient id="a" x1="27" x2="27" y1="0" y2="87" gradientUnits="userSpaceOnUse"><stop stop-color="#FF385C"/><stop offset="1" stop-color="#5200FF"/></linearGradient></defs></svg>