<svg xmlns="http://www.w3.org/2000/svg" width="56" height="56" fill="none"><g clip-path="url(#a)"><path fill="#0A66C2" d="M47.714 47.715h-8.297V34.721c0-3.099-.055-7.088-4.316-7.088-4.321 0-4.982 3.377-4.982 6.862v13.22H21.82V20.992h7.966v3.652h.111a8.73 8.73 0 0 1 7.86-4.317c8.41 0 9.96 5.532 9.96 12.728l-.004 14.66ZM12.46 17.34a4.815 4.815 0 1 1-.001-9.63 4.815 4.815 0 0 1 0 9.63m4.15 30.375H8.302V20.993h8.306v26.722ZM51.85.005H4.132A4.087 4.087 0 0 0 0 4.04v47.917A4.09 4.09 0 0 0 4.132 56h47.719A4.098 4.098 0 0 0 56 51.96V4.036A4.095 4.095 0 0 0 51.85 0"/></g><defs><clipPath id="a"><path fill="#fff" d="M0 0h56v56H0z"/></clipPath></defs></svg>