<svg xmlns="http://www.w3.org/2000/svg" width="56" height="53" fill="none" viewBox="0 0 56 53">
  <path fill="url(#a)" d="M32.226.015c4.62 0 8.622.857 12.007 2.568 3.384 1.712 5.973 4.122 7.765 7.228 1.831 3.106 2.748 6.69 2.748 10.752 0 3.267-.58 6.353-1.733 9.259-1.114 2.906-2.747 5.256-4.898 7.048-2.15 1.792-4.698 2.688-7.646 2.688-2.072 0-3.742-.418-5.017-1.254-1.275-.877-2.09-2.11-2.45-3.704-1.155 1.554-2.648 2.788-4.48 3.704a13.266 13.266 0 0 1-5.793 1.314c-3.026 0-5.395-.896-7.109-2.688-1.711-1.831-2.568-4.321-2.568-7.466 0-2.987.616-5.774 1.851-8.363 1.234-2.59 2.948-4.66 5.138-6.212 2.19-1.593 4.659-2.39 7.407-2.39 3.425 0 5.773 1.195 7.048 3.584l.538-3.106h6.988l-2.807 16.128c-.114.691-.174 1.39-.18 2.09 0 .956.2 1.673.598 2.151.398.478 1.075.717 2.031.717 1.434 0 2.628-.678 3.584-2.031.995-1.353 1.732-3.046 2.21-5.077.513-1.99.773-4.038.777-6.093 0-4.818-1.475-8.542-4.42-11.17-2.948-2.67-7.109-4.002-12.485-4.002-4.579 0-8.72 1.114-12.424 3.345-3.704 2.19-6.61 5.197-8.721 9.02-2.072 3.783-3.107 8.004-3.107 12.663 0 4.937 1.455 8.741 4.36 11.409 2.948 2.67 7.11 4.002 12.485 4.002 3.864 0 7.267-.696 10.215-2.09l1.194 5.495c-3.784 1.592-7.983 2.39-12.604 2.39-4.46 0-8.362-.858-11.707-2.57-3.345-1.672-5.934-4.061-7.766-7.167C1.425 39.08.508 35.476.508 31.375c0-5.854 1.353-11.17 4.062-15.949 2.747-4.778 6.531-8.542 11.349-11.29C20.778 1.39 26.214.016 32.226.016Zm-6.87 33.39c1.434 0 2.748-.417 3.943-1.254a8.56 8.56 0 0 0 2.808-3.345 9.657 9.657 0 0 0 1.075-4.48c0-1.672-.458-3.026-1.374-4.061-.915-1.037-2.19-1.553-3.823-1.553a5.936 5.936 0 0 0-3.883 1.373c-1.114.878-1.991 2.031-2.628 3.465a11.685 11.685 0 0 0-.896 4.54c0 1.633.398 2.927 1.195 3.882.797.956 1.992 1.434 3.584 1.434Z"/>
  <defs>
    <linearGradient id="a" x1="27.627" x2="27.145" y1=".015" y2="106.579" gradientUnits="userSpaceOnUse">
      <stop stop-color="#FF385C"/>
      <stop offset="1" stop-color="#5200FF"/>
    </linearGradient>
  </defs>
</svg>
