<svg xmlns="http://www.w3.org/2000/svg" width="56" height="56" fill="none" viewBox="0 0 56 56">
  <path fill="#fff" d="M2 2h35v35H2z"/>
  <path fill="#fff" d="M19 19h35v35H19z"/>
  <path fill="#000" d="M13.263 28a1.475 1.475 0 0 1-1.473-1.475v-16.21c0-.814.658-1.474 1.473-1.474h5.53c1.073 0 2.074.11 3.003.324.95.196 1.768.537 2.457 1.027.707.471 1.262 1.108 1.668 1.913.404.782.607 1.75.607 2.908 0 1.117-.215 2.086-.637 2.91a5.536 5.536 0 0 1-1.669 2.027 7.255 7.255 0 0 1-2.457 1.174c-.928.256-1.92.382-2.97.382h-1.073a1.475 1.475 0 0 0-1.475 1.475v3.547A1.475 1.475 0 0 1 14.772 28h-1.51Zm2.984-11.405c0 .814.66 1.474 1.475 1.474h.8c2.427 0 3.64-1.02 3.64-3.056 0-.999-.315-1.704-.943-2.117-.606-.41-1.505-.616-2.697-.616h-.8a1.475 1.475 0 0 0-1.475 1.473v2.842Zm14.7 30.562a1.475 1.475 0 0 1-1.472-1.473v-16.21A1.471 1.471 0 0 1 30.947 28h5.14c1.027 0 1.972.08 2.838.233.886.14 1.652.395 2.296.766a4.13 4.13 0 0 1 1.51 1.47c.382.606.573 1.37.573 2.291 0 .432-.07.863-.21 1.293-.124.436-.33.844-.606 1.204a4.334 4.334 0 0 1-2.511 1.633.072.072 0 0 0-.054.07.07.07 0 0 0 .059.07c1.379.259 2.426.747 3.14 1.46.726.724 1.088 1.734 1.088 3.027 0 .98-.192 1.82-.574 2.527a5.024 5.024 0 0 1-1.599 1.762 7.935 7.935 0 0 1-2.417 1.029c-.97.223-1.963.331-2.959.324l-5.714-.002Zm2.966-12.932c0 .815.66 1.473 1.474 1.473h.49c1.085 0 1.872-.206 2.355-.616.483-.411.723-.99.723-1.734 0-.705-.25-1.204-.754-1.498-.483-.315-1.248-.471-2.296-.471h-.518a1.474 1.474 0 0 0-1.474 1.474v1.372Zm0 8.08c0 .815.66 1.473 1.474 1.473h.91c2.378 0 3.566-.861 3.566-2.585 0-.84-.292-1.45-.878-1.82-.562-.374-1.458-.56-2.688-.56h-.91a1.474 1.474 0 0 0-1.474 1.474v2.019ZM3.24 0C1.468 0 0 1.468 0 3.241V35.07a3.267 3.267 0 0 0 3.241 3.243h15.916a1.474 1.474 0 0 0 1.47-1.474 1.475 1.475 0 0 0-1.47-1.47H3.24c-.182 0-.292-.117-.292-.299V3.243c0-.182.11-.291.292-.291h31.83c.182 0 .296.11.296.291v15.914a1.475 1.475 0 0 0 2.95 0V3.24A3.267 3.267 0 0 0 35.075 0H3.24Zm33.602 17.682a1.473 1.473 0 0 0-.002 2.947h15.918c.182 0 .292.117.292.299v31.829c0 .182-.11.291-.292.291H20.93c-.18 0-.296-.11-.296-.291V36.843a1.475 1.475 0 0 0-2.95 0v15.918A3.267 3.267 0 0 0 20.925 56H52.76c1.772 0 3.24-1.468 3.24-3.241V20.93a3.266 3.266 0 0 0-3.241-3.243l-15.916-.005Z"/>
</svg>
