<svg xmlns="http://www.w3.org/2000/svg" width="49" height="56" fill="none" viewBox="0 0 49 56">
  <path fill="#FF3E00" d="M44.98 7.383a17.963 17.963 0 0 0-23.61-4.912L7.924 10.787A14.936 14.936 0 0 0 .955 20.814 15.387 15.387 0 0 0 2.557 30.94a14.73 14.73 0 0 0-2.304 5.605 15.593 15.593 0 0 0 2.802 12.068 17.971 17.971 0 0 0 23.611 4.92l13.449-8.314a14.952 14.952 0 0 0 6.968-10.027 15.36 15.36 0 0 0-1.601-10.134 14.71 14.71 0 0 0 2.306-5.605 15.584 15.584 0 0 0-2.808-12.07"/>
  <path fill="#fff" d="M20.06 49.303a10.836 10.836 0 0 1-11.455-4.121 9.365 9.365 0 0 1-1.698-7.257c.076-.415.183-.823.318-1.222l.255-.75.688.476c1.599 1.139 3.377 2 5.261 2.55l.49.147-.05.474c-.057.69.136 1.378.543 1.938a3.263 3.263 0 0 0 3.49 1.273 3 3 0 0 0 .822-.35l13.413-8.316a2.737 2.737 0 0 0 1.267-1.82 2.817 2.817 0 0 0-.488-2.184 3.272 3.272 0 0 0-3.455-1.245c-.292.075-.57.194-.827.352l-5.15 3.171a9.878 9.878 0 0 1-2.73 1.165A10.841 10.841 0 0 1 9.29 29.46a9.365 9.365 0 0 1-1.663-7.262 9.023 9.023 0 0 1 4.182-6.026l13.429-8.316a9.874 9.874 0 0 1 2.73-1.163 10.836 10.836 0 0 1 11.467 4.122 9.366 9.366 0 0 1 1.698 7.257 8.535 8.535 0 0 1-.319 1.22l-.254.752-.688-.475a17.442 17.442 0 0 0-5.262-2.55l-.49-.148.05-.475a2.878 2.878 0 0 0-.544-1.938 3.26 3.26 0 0 0-3.454-1.245 2.97 2.97 0 0 0-.822.352l-13.457 8.288a2.708 2.708 0 0 0-1.264 1.818 2.79 2.79 0 0 0 .489 2.186 3.27 3.27 0 0 0 3.455 1.243 3.08 3.08 0 0 0 .827-.35l5.129-3.173a9.81 9.81 0 0 1 2.73-1.163 10.845 10.845 0 0 1 11.467 4.122 9.37 9.37 0 0 1 1.688 7.257 9.01 9.01 0 0 1-4.182 6.031L22.804 48.14a9.805 9.805 0 0 1-2.73 1.163"/>
</svg>
