<svg xmlns="http://www.w3.org/2000/svg" width="48" height="56" fill="none"><path fill="#398CCB" d="M5.254 44.962h4.043v2.05H5.254v4.655c-.008.334.038.667.136.987.074.237.206.451.384.625.171.161.38.278.607.34.227.061.46.094.695.099h.1c.212 0 .43 0 .656-.03l.134-.016.259-.03c.085-.01.168-.02.251-.034l.121-.02.228-.033c.074-.011.146-.023.217-.037l.168-.034.079-.016.145-.033.067-.016.272 1.911a3.41 3.41 0 0 1-.69.294c-.272.087-.55.155-.83.205a10.154 10.154 0 0 1-1.856.17 5.224 5.224 0 0 1-1.61-.23 3.096 3.096 0 0 1-1.237-.735 3.19 3.19 0 0 1-.79-1.26 5.37 5.37 0 0 1-.281-1.84v-4.921H0v-2.051h2.472V42.31h2.782v2.652Zm9.909 5.383v5.445H12.35V41.218h4.896a7.834 7.834 0 0 1 2.191.285c.61.169 1.18.453 1.681.837.461.368.827.841 1.065 1.38.262.6.39 1.248.377 1.902.006.475-.056.948-.186 1.405a3.738 3.738 0 0 1-1.362 1.987c-.336.254-.7.47-1.085.641l3.132 6.013v.131h-3.024l-2.74-5.454h-2.132Zm.002-2.286h2.081c.391.008.78-.054 1.15-.184a2 2 0 0 0 .807-.535c.172-.192.304-.417.389-.66.082-.25.127-.51.133-.773v-.099a2.777 2.777 0 0 0-.175-1.026 1.816 1.816 0 0 0-.524-.735 2.221 2.221 0 0 0-.761-.4 3.523 3.523 0 0 0-.914-.14h-2.186v4.552Zm12.477 7.731h-2.808V41.218h4.983a6.36 6.36 0 0 1 2.153.345 4.897 4.897 0 0 1 1.642.957c.446.414.799.92 1.034 1.48.234.568.358 1.175.366 1.789v.122a4.444 4.444 0 0 1-.366 1.813 4.139 4.139 0 0 1-1.034 1.43 4.85 4.85 0 0 1-1.65.952 6.387 6.387 0 0 1-2.151.34H27.64l.002 5.344Zm0-7.625h2.17a2.75 2.75 0 0 0 1.043-.182c.278-.109.53-.276.74-.49a2.06 2.06 0 0 0 .435-.715 2.51 2.51 0 0 0 .147-.846 3.011 3.011 0 0 0-.147-.95 2.2 2.2 0 0 0-.435-.772 2.131 2.131 0 0 0-.74-.52 2.626 2.626 0 0 0-1.042-.19h-2.17v4.665Zm18.95 5.043a4.658 4.658 0 0 1-1.085 1.501 4.79 4.79 0 0 1-1.621.957 6.187 6.187 0 0 1-1.942.334h-.142a5.657 5.657 0 0 1-1.664-.23 4.664 4.664 0 0 1-1.38-.677 4.73 4.73 0 0 1-.996-.99 6.197 6.197 0 0 1-.736-1.281 7.646 7.646 0 0 1-.443-1.541 9.814 9.814 0 0 1-.157-1.782v-1.962a9.818 9.818 0 0 1 .14-1.676c.078-.45.198-.89.359-1.317l.062-.16a5.59 5.59 0 0 1 .842-1.48 5.383 5.383 0 0 1 1.18-1.1 4.81 4.81 0 0 1 1.296-.586c.448-.127.91-.196 1.376-.204h.14a6.21 6.21 0 0 1 2.136.34 4.368 4.368 0 0 1 2.637 2.511 6.87 6.87 0 0 1 .481 2.051h-2.8a4.705 4.705 0 0 0-.194-1.15 2.272 2.272 0 0 0-.446-.82 1.914 1.914 0 0 0-.745-.486 3.076 3.076 0 0 0-1.067-.165 2.62 2.62 0 0 0-.616.071c-.184.045-.36.115-.524.21a2.083 2.083 0 0 0-.69.69 4.042 4.042 0 0 0-.46 1.036 6.26 6.26 0 0 0-.189 1.017c-.042.397-.062.796-.06 1.195v1.98c-.004.52.027 1.04.095 1.557.051.409.15.81.294 1.196.087.22.2.428.336.62.122.177.273.332.446.46.182.135.387.235.605.295.242.067.493.1.745.096.335.004.67-.043.99-.14.282-.087.54-.238.753-.441a2.08 2.08 0 0 0 .49-.771c.133-.363.21-.745.23-1.131h2.812a5.589 5.589 0 0 1-.488 1.973ZM34.276 16.993l7.078 4.087v8.176l-7.078 4.087-3.142-1.817-7.64 4.41-7.595-4.385-3.098 1.792-7.078-4.094v-8.17l7.078-4.086 7.078 4.086v8.17l-2.141 1.239 5.756 3.324 5.802-3.35-2.098-1.213v-8.17l7.078-4.086Zm-5.238 6.216v4.987l4.318 2.493v-4.987l-4.318-2.493Zm10.476-.007-4.318 2.493v4.994l4.318-2.5v-4.987Zm-31.95 0v4.987l4.317 2.493v-4.987l-4.318-2.493Zm10.475 0-4.318 2.492v4.988l4.319-2.493v-4.987Zm16.237-4.08-4.318 2.493 4.318 2.495 4.318-2.495-4.318-2.492Zm-21.475-.006-4.318 2.5 4.318 2.488 4.319-2.489-4.319-2.5Zm3.52-12.675v2.122l-6.548 3.783v6.395l-1.84 1.062v-8.52l8.389-4.842ZM23.4 0l7.083 4.086v2.247l8.572 4.95v8.467l-1.84-1.062v-6.342l-6.732-3.888v3.8l-7.078 4.087-7.078-4.086V4.086L23.4 0Zm-5.233 6.209v4.987l4.314 2.493V8.703L18.166 6.21Zm10.472 0-4.314 2.494v4.984l4.314-2.49V6.208ZM23.4 2.125l-4.314 2.492L23.4 7.11l4.318-2.493-4.319-2.492Z"/></svg>