<svg width="35" height="35" fill="none" xmlns="http://www.w3.org/2000/svg"><path fill-rule="evenodd" clip-rule="evenodd" d="M35 17.5C35 27.165 27.165 35 17.5 35S0 27.165 0 17.5 7.835 0 17.5 0 35 7.835 35 17.5zm-33-.12C2 8.882 8.881 2 17.38 2c8.497 0 15.379 6.882 15.379 15.379a15.406 15.406 0 01-10.477 14.592c-.769.153-1.058-.327-1.058-.73l.005-.875c.006-.796.015-1.986.015-3.355 0-1.442-.481-2.365-1.039-2.845 3.422-.384 7.017-1.692 7.017-7.594 0-1.692-.596-3.057-1.576-4.133.154-.385.692-1.961-.154-4.076 0 0-1.288-.423-4.229 1.577a14.279 14.279 0 00-3.845-.52c-1.307 0-2.615.174-3.845.52-2.941-1.98-4.229-1.577-4.229-1.577-.846 2.115-.308 3.691-.154 4.076-.981 1.076-1.577 2.461-1.577 4.133 0 5.883 3.576 7.209 6.998 7.594-.442.384-.846 1.057-.98 2.057-.885.403-3.095 1.057-4.48-1.269-.288-.462-1.153-1.596-2.365-1.577-1.287.019-.518.731.02 1.019.654.366 1.403 1.73 1.577 2.173.307.865 1.307 2.518 5.17 1.807 0 .84.008 1.648.014 2.21.004.298.006.527.006.654 0 .404-.288.865-1.057.73C6.402 29.933 2 24.185 2 17.38z" fill="#fff"/></svg>