<svg width="150" height="150" fill="none" xmlns="http://www.w3.org/2000/svg"><path d="M89.444 21v107.827H67.817v-45.88h-46.19v45.88H0V21h21.627v44.336h46.19V21h21.627z" fill="url(#prefix__paint0_linear_1_5)"/><path d="M129.145 73.523c6.076 1.133 11.072 4.171 14.985 9.114 3.913 4.944 5.87 10.609 5.87 16.993 0 5.767-1.441 10.865-4.325 15.294-2.781 4.325-6.849 7.724-12.204 10.195-5.356 2.472-11.69 3.708-19.001 3.708H67.971V21h44.49c7.312 0 13.595 1.185 18.847 3.553 5.356 2.368 9.372 5.665 12.049 9.887 2.781 4.222 4.171 9.01 4.171 14.366 0 6.283-1.699 11.535-5.097 15.757-3.296 4.222-7.724 7.21-13.286 8.96zM89.598 65.49h19.774c5.149 0 9.114-1.132 11.895-3.398 2.78-2.368 4.171-5.716 4.171-10.041 0-4.326-1.391-7.674-4.171-10.042-2.781-2.368-6.746-3.553-11.895-3.553H89.598V65.49zm21.782 45.726c5.252 0 9.32-1.236 12.204-3.707 2.986-2.472 4.48-5.974 4.48-10.505 0-4.634-1.545-8.238-4.635-10.814-3.089-2.677-7.26-4.016-12.512-4.016H89.598v29.042h21.782z" fill="url(#prefix__paint1_linear_1_5)"/><defs><linearGradient id="prefix__paint0_linear_1_5" x1="44.722" y1="21" x2="43.462" y2="242.358" gradientUnits="userSpaceOnUse"><stop stop-color="#FF385C"/><stop offset="1" stop-color="#5200FF"/></linearGradient><linearGradient id="prefix__paint1_linear_1_5" x1="108.986" y1="21" x2="107.611" y2="242.357" gradientUnits="userSpaceOnUse"><stop stop-color="#FF385C"/><stop offset="1" stop-color="#5200FF"/></linearGradient></defs></svg>